{
    "patcher": {
        "fileversion": 1,
        "appversion": {
            "major": 9,
            "minor": 1,
            "revision": 0,
            "architecture": "x64",
            "modernui": 1
        },
        "classnamespace": "box",
        "rect": [ 271.0, 162.0, 852.0, 639.0 ],
        "boxes": [
            {
                "box": {
                    "id": "obj-10",
                    "maxclass": "spectroscope~",
                    "numinlets": 2,
                    "numoutlets": 1,
                    "outlettype": [ "" ],
                    "patching_rect": [ 393.0, 372.0, 300.0, 100.0 ]
                }
            },
            {
                "box": {
                    "id": "obj-9",
                    "maxclass": "newobj",
                    "numinlets": 1,
                    "numoutlets": 1,
                    "outlettype": [ "" ],
                    "patching_rect": [ 525.0, 33.0, 29.0, 22.0 ],
                    "text": "thru"
                }
            },
            {
                "box": {
                    "bgmode": 0,
                    "border": 1,
                    "clickthrough": 0,
                    "enablehscroll": 0,
                    "enablevscroll": 0,
                    "id": "obj-6",
                    "lockeddragscroll": 0,
                    "lockedsize": 0,
                    "maxclass": "bpatcher",
                    "name": "allPass.maxpat",
                    "numinlets": 2,
                    "numoutlets": 1,
                    "offset": [ 0.0, 0.0 ],
                    "outlettype": [ "signal" ],
                    "patching_rect": [ 296.0, 157.0, 49.0, 416.0 ],
                    "viewvisibility": 1
                }
            },
            {
                "box": {
                    "bgmode": 0,
                    "border": 1,
                    "clickthrough": 0,
                    "enablehscroll": 0,
                    "enablevscroll": 0,
                    "id": "obj-5",
                    "lockeddragscroll": 0,
                    "lockedsize": 0,
                    "maxclass": "bpatcher",
                    "name": "allPass.maxpat",
                    "numinlets": 2,
                    "numoutlets": 1,
                    "offset": [ 0.0, 0.0 ],
                    "outlettype": [ "signal" ],
                    "patching_rect": [ 212.33333333333331, 157.0, 49.0, 416.0 ],
                    "viewvisibility": 1
                }
            },
            {
                "box": {
                    "bgmode": 0,
                    "border": 1,
                    "clickthrough": 0,
                    "enablehscroll": 0,
                    "enablevscroll": 0,
                    "id": "obj-3",
                    "lockeddragscroll": 0,
                    "lockedsize": 0,
                    "maxclass": "bpatcher",
                    "name": "allPass.maxpat",
                    "numinlets": 2,
                    "numoutlets": 1,
                    "offset": [ 0.0, 0.0 ],
                    "outlettype": [ "signal" ],
                    "patching_rect": [ 128.66666666666666, 157.0, 49.0, 416.0 ],
                    "viewvisibility": 1
                }
            },
            {
                "box": {
                    "bgmode": 0,
                    "border": 1,
                    "clickthrough": 0,
                    "enablehscroll": 0,
                    "enablevscroll": 0,
                    "id": "obj-4",
                    "lockeddragscroll": 0,
                    "lockedsize": 0,
                    "maxclass": "bpatcher",
                    "name": "allPass.maxpat",
                    "numinlets": 2,
                    "numoutlets": 1,
                    "offset": [ 0.0, 0.0 ],
                    "outlettype": [ "signal" ],
                    "patching_rect": [ 45.0, 157.0, 49.0, 416.0 ],
                    "viewvisibility": 1
                }
            },
            {
                "box": {
                    "id": "obj-2",
                    "maxclass": "newobj",
                    "numinlets": 1,
                    "numoutlets": 1,
                    "outlettype": [ "" ],
                    "patching_rect": [ 442.0, 72.0, 93.0, 22.0 ],
                    "text": "loadmess 0.191"
                }
            },
            {
                "box": {
                    "id": "obj-1",
                    "maxclass": "newobj",
                    "numinlets": 1,
                    "numoutlets": 1,
                    "outlettype": [ "" ],
                    "patching_rect": [ 610.0, 101.0, 83.0, 22.0 ],
                    "text": "loadmess 120"
                }
            },
            {
                "box": {
                    "id": "obj-35",
                    "maxclass": "newobj",
                    "numinlets": 2,
                    "numoutlets": 1,
                    "outlettype": [ "signal" ],
                    "patching_rect": [ 376.0, 72.0, 34.0, 22.0 ],
                    "text": "*~ 0."
                }
            },
            {
                "box": {
                    "id": "obj-34",
                    "maxclass": "newobj",
                    "numinlets": 1,
                    "numoutlets": 1,
                    "outlettype": [ "signal" ],
                    "patching_rect": [ 376.0, 102.0, 39.0, 22.0 ],
                    "text": "tanh~"
                }
            },
            {
                "box": {
                    "id": "obj-33",
                    "maxclass": "newobj",
                    "numinlets": 1,
                    "numoutlets": 1,
                    "outlettype": [ "signal" ],
                    "patching_rect": [ 45.0, 83.0, 38.0, 22.0 ],
                    "text": "pink~"
                }
            },
            {
                "box": {
                    "id": "obj-166",
                    "maxclass": "newobj",
                    "numinlets": 1,
                    "numoutlets": 1,
                    "outlettype": [ "" ],
                    "patching_rect": [ 430.0, 153.0, 81.0, 22.0 ],
                    "text": "loadmess -40"
                }
            },
            {
                "box": {
                    "format": 6,
                    "id": "obj-80",
                    "maxclass": "flonum",
                    "maximum": 1.0,
                    "minimum": 0.0,
                    "numinlets": 1,
                    "numoutlets": 2,
                    "outlettype": [ "", "bang" ],
                    "parameter_enable": 0,
                    "patching_rect": [ 442.0, 102.0, 50.0, 22.0 ]
                }
            },
            {
                "box": {
                    "id": "obj-77",
                    "maxclass": "newobj",
                    "numinlets": 1,
                    "numoutlets": 1,
                    "outlettype": [ "signal" ],
                    "patching_rect": [ 375.0, 38.0, 76.0, 22.0 ],
                    "text": "tapout~ 0.02"
                }
            },
            {
                "box": {
                    "id": "obj-76",
                    "maxclass": "newobj",
                    "numinlets": 1,
                    "numoutlets": 1,
                    "outlettype": [ "tapconnect" ],
                    "patching_rect": [ 375.0, 8.0, 68.0, 22.0 ],
                    "text": "tapin~ 0.02"
                }
            },
            {
                "box": {
                    "id": "obj-56",
                    "maxclass": "newobj",
                    "numinlets": 1,
                    "numoutlets": 0,
                    "patching_rect": [ 610.0, 329.0, 25.0, 22.0 ],
                    "text": "s q"
                }
            },
            {
                "box": {
                    "id": "obj-16",
                    "lastchannelcount": 0,
                    "maxclass": "live.gain~",
                    "numinlets": 2,
                    "numoutlets": 5,
                    "outlettype": [ "signal", "signal", "", "float", "list" ],
                    "parameter_enable": 1,
                    "patching_rect": [ 375.0, 153.0, 40.0, 95.0 ],
                    "saved_attribute_attributes": {
                        "valueof": {
                            "parameter_longname": "live.gain~",
                            "parameter_mmax": 6.0,
                            "parameter_mmin": -70.0,
                            "parameter_modmode": 3,
                            "parameter_shortname": "live.gain~",
                            "parameter_type": 0,
                            "parameter_unitstyle": 4
                        }
                    },
                    "varname": "live.gain~"
                }
            },
            {
                "box": {
                    "id": "obj-15",
                    "maxclass": "newobj",
                    "numinlets": 2,
                    "numoutlets": 0,
                    "patching_rect": [ 375.0, 270.0, 35.0, 22.0 ],
                    "text": "dac~"
                }
            },
            {
                "box": {
                    "id": "obj-8",
                    "maxclass": "newobj",
                    "numinlets": 6,
                    "numoutlets": 1,
                    "outlettype": [ "" ],
                    "patching_rect": [ 610.0, 294.0, 101.0, 22.0 ],
                    "text": "scale 0 127 -1. 1."
                }
            },
            {
                "box": {
                    "id": "obj-7",
                    "maxclass": "dial",
                    "numinlets": 1,
                    "numoutlets": 1,
                    "outlettype": [ "float" ],
                    "parameter_enable": 0,
                    "patching_rect": [ 610.0, 143.0, 137.0, 137.0 ]
                }
            }
        ],
        "lines": [
            {
                "patchline": {
                    "destination": [ "obj-7", 0 ],
                    "source": [ "obj-1", 0 ]
                }
            },
            {
                "patchline": {
                    "destination": [ "obj-15", 1 ],
                    "order": 0,
                    "source": [ "obj-16", 0 ]
                }
            },
            {
                "patchline": {
                    "destination": [ "obj-15", 0 ],
                    "order": 1,
                    "source": [ "obj-16", 0 ]
                }
            },
            {
                "patchline": {
                    "destination": [ "obj-16", 0 ],
                    "source": [ "obj-166", 0 ]
                }
            },
            {
                "patchline": {
                    "destination": [ "obj-80", 0 ],
                    "source": [ "obj-2", 0 ]
                }
            },
            {
                "patchline": {
                    "destination": [ "obj-5", 0 ],
                    "midpoints": [ 138.16666666666666, 585.0, 198.0, 585.0, 198.0, 153.0, 221.83333333333331, 153.0 ],
                    "source": [ "obj-3", 0 ]
                }
            },
            {
                "patchline": {
                    "destination": [ "obj-4", 0 ],
                    "source": [ "obj-33", 0 ]
                }
            },
            {
                "patchline": {
                    "destination": [ "obj-10", 0 ],
                    "midpoints": [ 385.5, 138.0, 360.0, 138.0, 360.0, 357.0, 402.5, 357.0 ],
                    "order": 0,
                    "source": [ "obj-34", 0 ]
                }
            },
            {
                "patchline": {
                    "color": [ 1.0, 0.1491314173, 0.0, 1.0 ],
                    "destination": [ "obj-3", 1 ],
                    "order": 2,
                    "source": [ "obj-34", 0 ]
                }
            },
            {
                "patchline": {
                    "color": [ 1.0, 0.1491314173, 0.0, 1.0 ],
                    "destination": [ "obj-4", 1 ],
                    "order": 1,
                    "source": [ "obj-34", 0 ]
                }
            },
            {
                "patchline": {
                    "color": [ 1.0, 0.1491314173, 0.0, 1.0 ],
                    "destination": [ "obj-5", 1 ],
                    "order": 3,
                    "source": [ "obj-34", 0 ]
                }
            },
            {
                "patchline": {
                    "color": [ 1.0, 0.1491314173, 0.0, 1.0 ],
                    "destination": [ "obj-6", 1 ],
                    "order": 4,
                    "source": [ "obj-34", 0 ]
                }
            },
            {
                "patchline": {
                    "destination": [ "obj-34", 0 ],
                    "source": [ "obj-35", 0 ]
                }
            },
            {
                "patchline": {
                    "destination": [ "obj-3", 0 ],
                    "midpoints": [ 54.5, 585.0, 114.0, 585.0, 114.0, 153.0, 138.16666666666666, 153.0 ],
                    "source": [ "obj-4", 0 ]
                }
            },
            {
                "patchline": {
                    "destination": [ "obj-6", 0 ],
                    "midpoints": [ 221.83333333333331, 585.0, 282.0, 585.0, 282.0, 153.0, 305.5, 153.0 ],
                    "source": [ "obj-5", 0 ]
                }
            },
            {
                "patchline": {
                    "destination": [ "obj-16", 0 ],
                    "order": 0,
                    "source": [ "obj-6", 0 ]
                }
            },
            {
                "patchline": {
                    "destination": [ "obj-76", 0 ],
                    "midpoints": [ 305.5, 591.42578125, 359.12890625, 591.42578125, 359.12890625, 3.0, 384.5, 3.0 ],
                    "order": 1,
                    "source": [ "obj-6", 0 ]
                }
            },
            {
                "patchline": {
                    "destination": [ "obj-8", 0 ],
                    "source": [ "obj-7", 0 ]
                }
            },
            {
                "patchline": {
                    "destination": [ "obj-77", 0 ],
                    "source": [ "obj-76", 0 ]
                }
            },
            {
                "patchline": {
                    "destination": [ "obj-35", 0 ],
                    "source": [ "obj-77", 0 ]
                }
            },
            {
                "patchline": {
                    "destination": [ "obj-56", 0 ],
                    "source": [ "obj-8", 0 ]
                }
            },
            {
                "patchline": {
                    "destination": [ "obj-35", 1 ],
                    "source": [ "obj-80", 0 ]
                }
            }
        ],
        "parameters": {
            "obj-16": [ "live.gain~", "live.gain~", 0 ],
            "inherited_shortname": 1
        },
        "autosave": 0
    }
}