{
    "patcher": {
        "fileversion": 1,
        "appversion": {
            "major": 9,
            "minor": 1,
            "revision": 0,
            "architecture": "x64",
            "modernui": 1
        },
        "classnamespace": "box",
        "rect": [ 318.0, 208.0, 782.0, 522.0 ],
        "boxes": [
            {
                "box": {
                    "id": "obj-23",
                    "maxclass": "newobj",
                    "numinlets": 2,
                    "numoutlets": 1,
                    "outlettype": [ "float" ],
                    "patching_rect": [ 148.0, 107.0, 32.0, 22.0 ],
                    "text": "f #2"
                }
            },
            {
                "box": {
                    "id": "obj-22",
                    "maxclass": "newobj",
                    "numinlets": 2,
                    "numoutlets": 1,
                    "outlettype": [ "float" ],
                    "patching_rect": [ 64.0, 107.0, 39.0, 22.0 ],
                    "text": "f #1"
                }
            },
            {
                "box": {
                    "id": "obj-40",
                    "maxclass": "message",
                    "numinlets": 2,
                    "numoutlets": 1,
                    "outlettype": [ "" ],
                    "patching_rect": [ 613.0, 155.0, 97.0, 22.0 ],
                    "text": "beam/beam.json"
                }
            },
            {
                "box": {
                    "id": "obj-34",
                    "maxclass": "newobj",
                    "numinlets": 2,
                    "numoutlets": 1,
                    "outlettype": [ "bang" ],
                    "patching_rect": [ 459.25, 115.0, 67.0, 22.0 ],
                    "text": "delay 5000"
                }
            },
            {
                "box": {
                    "id": "obj-33",
                    "maxclass": "newobj",
                    "numinlets": 1,
                    "numoutlets": 1,
                    "outlettype": [ "bang" ],
                    "patching_rect": [ 459.25, 80.0, 58.0, 22.0 ],
                    "text": "loadbang"
                }
            },
            {
                "box": {
                    "id": "obj-30",
                    "maxclass": "newobj",
                    "numinlets": 2,
                    "numoutlets": 1,
                    "outlettype": [ "float" ],
                    "patching_rect": [ 21.0, 107.0, 29.5, 22.0 ],
                    "text": "f 0."
                }
            },
            {
                "box": {
                    "id": "obj-29",
                    "maxclass": "newobj",
                    "numinlets": 3,
                    "numoutlets": 3,
                    "outlettype": [ "bang", "bang", "" ],
                    "patching_rect": [ 21.0, 66.0, 105.0, 22.0 ],
                    "text": "sel 0 1"
                }
            },
            {
                "box": {
                    "comment": "",
                    "id": "obj-16",
                    "index": 1,
                    "maxclass": "inlet",
                    "numinlets": 0,
                    "numoutlets": 1,
                    "outlettype": [ "int" ],
                    "patching_rect": [ 21.0, 20.0, 30.0, 30.0 ]
                }
            },
            {
                "box": {
                    "id": "obj-13",
                    "maxclass": "newobj",
                    "numinlets": 1,
                    "numoutlets": 1,
                    "outlettype": [ "" ],
                    "patching_rect": [ 281.0, 107.0, 80.0, 22.0 ],
                    "text": "loadmess 0.5"
                }
            },
            {
                "box": {
                    "id": "obj-12",
                    "maxclass": "newobj",
                    "numinlets": 1,
                    "numoutlets": 1,
                    "outlettype": [ "" ],
                    "patching_rect": [ 613.0, 227.0, 80.0, 22.0 ],
                    "text": "prepend read"
                }
            },
            {
                "box": {
                    "id": "obj-10",
                    "maxclass": "newobj",
                    "numinlets": 1,
                    "numoutlets": 1,
                    "outlettype": [ "" ],
                    "patching_rect": [ 613.0, 191.0, 103.0, 22.0 ],
                    "text": "relativetoabsolute"
                }
            },
            {
                "box": {
                    "id": "obj-4",
                    "maxclass": "newobj",
                    "numinlets": 1,
                    "numoutlets": 2,
                    "outlettype": [ "bang", "" ],
                    "patching_rect": [ 613.0, 263.0, 29.5, 22.0 ],
                    "text": "t b l"
                }
            },
            {
                "box": {
                    "id": "obj-2",
                    "maxclass": "newobj",
                    "numinlets": 1,
                    "numoutlets": 2,
                    "outlettype": [ "bang", "" ],
                    "patching_rect": [ 459.25, 263.0, 29.5, 22.0 ],
                    "text": "t b l"
                }
            },
            {
                "box": {
                    "id": "obj-32",
                    "maxclass": "newobj",
                    "numinlets": 1,
                    "numoutlets": 1,
                    "outlettype": [ "" ],
                    "patching_rect": [ 459.25, 191.0, 103.0, 22.0 ],
                    "text": "relativetoabsolute"
                }
            },
            {
                "box": {
                    "id": "obj-31",
                    "maxclass": "newobj",
                    "numinlets": 1,
                    "numoutlets": 1,
                    "outlettype": [ "" ],
                    "patching_rect": [ 459.25, 227.0, 80.0, 22.0 ],
                    "text": "prepend read"
                }
            },
            {
                "box": {
                    "id": "obj-28",
                    "maxclass": "message",
                    "numinlets": 2,
                    "numoutlets": 1,
                    "outlettype": [ "" ],
                    "patching_rect": [ 459.25, 155.0, 93.0, 22.0 ],
                    "text": "beam/haze.json"
                }
            },
            {
                "box": {
                    "data": {
                        "inputs": [],
                        "outputs": [
                            {
                                "type": "artNet",
                                "name": "ArtNet",
                                "address": "192.168.0.5",
                                "sourceUniverse": 1,
                                "targetUniverse": 1
                            }
                        ]
                    },
                    "id": "obj-27",
                    "maxclass": "newobj",
                    "numinlets": 2,
                    "numoutlets": 5,
                    "outlettype": [ "dictionary", "", "", "", "" ],
                    "patching_rect": [ 613.0, 298.0, 50.5, 22.0 ],
                    "saved_object_attributes": {
                        "embed": 1,
                        "legacy": 1,
                        "parameter_enable": 0,
                        "parameter_mappable": 0
                    },
                    "text": "dict"
                }
            },
            {
                "box": {
                    "data": {
                        "fixtures": [
                            {
                                "name": "",
                                "type": "Generic RGB",
                                "modeName": "3-channel",
                                "channel": 1,
                                "universe": 1,
                                "tags": [
                                    {
                                        "name": "haze",
                                        "index": 60
                                    }
                                ],
                                "ranges": [],
                                "testOn": 0,
                                "children": [],
                                "cells": []
                            }
                        ],
                        "version": 1
                    },
                    "id": "obj-26",
                    "maxclass": "newobj",
                    "numinlets": 2,
                    "numoutlets": 5,
                    "outlettype": [ "dictionary", "", "", "", "" ],
                    "patching_rect": [ 459.25, 298.0, 50.5, 22.0 ],
                    "saved_object_attributes": {
                        "embed": 1,
                        "legacy": 1,
                        "parameter_enable": 0,
                        "parameter_mappable": 0
                    },
                    "text": "dict"
                }
            },
            {
                "box": {
                    "id": "obj-25",
                    "maxclass": "newobj",
                    "numinlets": 1,
                    "numoutlets": 1,
                    "outlettype": [ "" ],
                    "patching_rect": [ 613.0, 334.0, 88.0, 22.0 ],
                    "text": "prepend set_io"
                }
            },
            {
                "box": {
                    "id": "obj-20",
                    "maxclass": "newobj",
                    "numinlets": 1,
                    "numoutlets": 1,
                    "outlettype": [ "" ],
                    "patching_rect": [ 459.25, 334.0, 108.0, 22.0 ],
                    "text": "prepend set_patch"
                }
            },
            {
                "box": {
                    "id": "obj-19",
                    "maxclass": "newobj",
                    "numinlets": 1,
                    "numoutlets": 1,
                    "outlettype": [ "" ],
                    "patching_rect": [ 460.25, 379.0, 65.0, 22.0 ],
                    "text": "beam.core"
                }
            },
            {
                "box": {
                    "bgmode": 0,
                    "border": 0,
                    "clickthrough": 0,
                    "embed": 1,
                    "enablehscroll": 0,
                    "enablevscroll": 1,
                    "id": "obj-18",
                    "lockeddragscroll": 0,
                    "lockedsize": 0,
                    "maxclass": "bpatcher",
                    "name": "beam.monitor.Main.maxpat",
                    "numinlets": 0,
                    "numoutlets": 0,
                    "offset": [ 0.0, 0.0 ],
                    "patcher": {
                        "fileversion": 1,
                        "appversion": {
                            "major": 9,
                            "minor": 1,
                            "revision": 0,
                            "architecture": "x64",
                            "modernui": 1
                        },
                        "classnamespace": "box",
                        "rect": [ 206.0, 127.0, 658.0, 1180.0 ],
                        "openinpresentation": 1,
                        "boxes": [
                            {
                                "box": {
                                    "id": "obj-5",
                                    "maxclass": "newobj",
                                    "numinlets": 1,
                                    "numoutlets": 1,
                                    "outlettype": [ "" ],
                                    "patching_rect": [ 270.0, 564.0, 72.0, 22.0 ],
                                    "text": "prepend set"
                                }
                            },
                            {
                                "box": {
                                    "fontname": "Lato",
                                    "id": "obj-61",
                                    "maxclass": "comment",
                                    "numinlets": 1,
                                    "numoutlets": 0,
                                    "patching_rect": [ 326.0, 358.0, 58.0, 21.0 ],
                                    "presentation": 1,
                                    "presentation_rect": [ 14.0, 15.0, 55.0, 21.0 ],
                                    "text": "Universe",
                                    "textcolor": [ 1.0, 1.0, 1.0, 1.0 ]
                                }
                            },
                            {
                                "box": {
                                    "id": "obj-57",
                                    "maxclass": "newobj",
                                    "numinlets": 3,
                                    "numoutlets": 3,
                                    "outlettype": [ "bang", "bang", "" ],
                                    "patching_rect": [ 365.3333333333333, 150.0, 44.0, 22.0 ],
                                    "text": "sel 0 1"
                                }
                            },
                            {
                                "box": {
                                    "fontname": "Lato",
                                    "fontsize": 11.0,
                                    "htabcolor": [ 0.776470588235294, 0.803921568627451, 0.862745098039216, 1.0 ],
                                    "id": "obj-56",
                                    "maxclass": "tab",
                                    "numinlets": 1,
                                    "numoutlets": 3,
                                    "outlettype": [ "int", "", "" ],
                                    "parameter_enable": 1,
                                    "patching_rect": [ 365.3333333333333, 115.0, 200.0, 24.0 ],
                                    "presentation": 1,
                                    "presentation_rect": [ 529.0, 14.0, 118.0, 24.0 ],
                                    "rounded": 0.0,
                                    "saved_attribute_attributes": {
                                        "valueof": {
                                            "parameter_enum": [ "Input", "Output" ],
                                            "parameter_initial": [ 1 ],
                                            "parameter_initial_enable": 1,
                                            "parameter_longname": "tab",
                                            "parameter_mmax": 1,
                                            "parameter_modmode": 0,
                                            "parameter_shortname": "tab",
                                            "parameter_type": 2
                                        }
                                    },
                                    "spacing_x": 6.0,
                                    "tabcolor": [ 0.188235294117647, 0.188235294117647, 0.188235294117647, 1.0 ],
                                    "tabs": [ "Input", "Output" ],
                                    "textcolor": [ 1.0, 1.0, 1.0, 1.0 ],
                                    "varname": "tab"
                                }
                            },
                            {
                                "box": {
                                    "id": "obj-42",
                                    "maxclass": "newobj",
                                    "numinlets": 2,
                                    "numoutlets": 2,
                                    "outlettype": [ "", "" ],
                                    "patching_rect": [ 270.0, 533.0, 151.0, 22.0 ],
                                    "text": "zl.change @zlmaxsize 513"
                                }
                            },
                            {
                                "box": {
                                    "id": "obj-39",
                                    "maxclass": "newobj",
                                    "numinlets": 1,
                                    "numoutlets": 4,
                                    "outlettype": [ "zlclear", "clear", "", "" ],
                                    "patching_rect": [ 365.3333333333333, 210.0, 101.0, 22.0 ],
                                    "text": "t zlclear clear l l"
                                }
                            },
                            {
                                "box": {
                                    "id": "obj-38",
                                    "maxclass": "newobj",
                                    "numinlets": 2,
                                    "numoutlets": 2,
                                    "outlettype": [ "", "" ],
                                    "patching_rect": [ 270.0, 259.0, 169.0, 22.0 ],
                                    "text": "zl.reg"
                                }
                            },
                            {
                                "box": {
                                    "id": "obj-32",
                                    "maxclass": "message",
                                    "numinlets": 2,
                                    "numoutlets": 1,
                                    "outlettype": [ "" ],
                                    "patching_rect": [ 470.0, 176.0, 95.0, 22.0 ],
                                    "text": "get_dmx_output"
                                }
                            },
                            {
                                "box": {
                                    "id": "obj-26",
                                    "maxclass": "newobj",
                                    "numinlets": 1,
                                    "numoutlets": 1,
                                    "outlettype": [ "" ],
                                    "patching_rect": [ 457.0, 424.0, 57.0, 22.0 ],
                                    "text": "tosymbol"
                                }
                            },
                            {
                                "box": {
                                    "bgcolor": [ 0.188235294117647, 0.188235294117647, 0.188235294117647, 1.0 ],
                                    "fontname": "Lato",
                                    "id": "obj-21",
                                    "maxclass": "number",
                                    "maximum": 32768,
                                    "minimum": 1,
                                    "numinlets": 1,
                                    "numoutlets": 2,
                                    "outlettype": [ "", "bang" ],
                                    "parameter_enable": 0,
                                    "patching_rect": [ 386.0, 357.0, 56.0, 23.0 ],
                                    "presentation": 1,
                                    "presentation_rect": [ 72.0, 14.0, 44.0, 23.0 ],
                                    "textcolor": [ 1.0, 1.0, 1.0, 1.0 ],
                                    "triangle": 0
                                }
                            },
                            {
                                "box": {
                                    "id": "obj-19",
                                    "maxclass": "newobj",
                                    "numinlets": 1,
                                    "numoutlets": 3,
                                    "outlettype": [ "zlclear", "clear", "int" ],
                                    "patching_rect": [ 386.0, 391.0, 90.0, 22.0 ],
                                    "text": "t zlclear clear i"
                                }
                            },
                            {
                                "box": {
                                    "id": "obj-18",
                                    "maxclass": "message",
                                    "numinlets": 2,
                                    "numoutlets": 1,
                                    "outlettype": [ "" ],
                                    "patching_rect": [ 457.0, 453.0, 50.0, 22.0 ],
                                    "text": "keys $1"
                                }
                            },
                            {
                                "box": {
                                    "id": "obj-4",
                                    "maxclass": "newobj",
                                    "numinlets": 2,
                                    "numoutlets": 2,
                                    "outlettype": [ "", "" ],
                                    "patching_rect": [ 270.0, 314.0, 196.33333333333331, 22.0 ],
                                    "text": "route get_dmx_output"
                                }
                            },
                            {
                                "box": {
                                    "id": "obj-40",
                                    "maxclass": "newobj",
                                    "numinlets": 1,
                                    "numoutlets": 2,
                                    "outlettype": [ "", "" ],
                                    "patching_rect": [ 270.0, 493.0, 83.0, 22.0 ],
                                    "saved_object_attributes": {
                                        "legacy": 1
                                    },
                                    "text": "dict.unpack 1:"
                                }
                            },
                            {
                                "box": {
                                    "id": "obj-10",
                                    "maxclass": "newobj",
                                    "numinlets": 2,
                                    "numoutlets": 1,
                                    "outlettype": [ "bang" ],
                                    "patching_rect": [ 270.0, 43.0, 119.0, 22.0 ],
                                    "text": "qmetro 40 @active 1"
                                }
                            },
                            {
                                "box": {
                                    "id": "obj-1",
                                    "maxclass": "newobj",
                                    "numinlets": 1,
                                    "numoutlets": 1,
                                    "outlettype": [ "" ],
                                    "patching_rect": [ 270.0, 285.0, 74.0, 22.0 ],
                                    "text": "beam.dmxio"
                                }
                            },
                            {
                                "box": {
                                    "id": "obj-2",
                                    "maxclass": "message",
                                    "numinlets": 2,
                                    "numoutlets": 1,
                                    "outlettype": [ "" ],
                                    "patching_rect": [ 365.3333333333333, 176.0, 87.0, 22.0 ],
                                    "text": "get_dmx_input"
                                }
                            },
                            {
                                "box": {
                                    "border": 0,
                                    "filename": "beam.monitor.draw",
                                    "id": "obj-6",
                                    "ignoreclick": 1,
                                    "maxclass": "jsui",
                                    "nofsaa": 1,
                                    "numinlets": 1,
                                    "numoutlets": 1,
                                    "outlettype": [ "" ],
                                    "parameter_enable": 0,
                                    "patching_rect": [ 270.0, 611.25, 635.0, 1436.5 ],
                                    "presentation": 1,
                                    "presentation_rect": [ 12.0, 48.25, 635.0, 1436.5 ]
                                }
                            },
                            {
                                "box": {
                                    "angle": 270.0,
                                    "bgcolor": [ 0.074509803921569, 0.07843137254902, 0.074509803921569, 1.0 ],
                                    "id": "obj-3",
                                    "maxclass": "panel",
                                    "mode": 0,
                                    "numinlets": 1,
                                    "numoutlets": 0,
                                    "patching_rect": [ 933.0, 498.0, 128.0, 128.0 ],
                                    "presentation": 1,
                                    "presentation_rect": [ 0.0, 0.0, 658.0, 1495.0 ],
                                    "proportion": 0.5,
                                    "rounded": 0
                                }
                            }
                        ],
                        "lines": [
                            {
                                "patchline": {
                                    "destination": [ "obj-4", 0 ],
                                    "source": [ "obj-1", 0 ]
                                }
                            },
                            {
                                "patchline": {
                                    "destination": [ "obj-38", 0 ],
                                    "source": [ "obj-10", 0 ]
                                }
                            },
                            {
                                "patchline": {
                                    "destination": [ "obj-40", 0 ],
                                    "midpoints": [ 466.5, 485.0, 279.5, 485.0 ],
                                    "source": [ "obj-18", 0 ]
                                }
                            },
                            {
                                "patchline": {
                                    "destination": [ "obj-26", 0 ],
                                    "source": [ "obj-19", 2 ]
                                }
                            },
                            {
                                "patchline": {
                                    "color": [ 0.0, 0.0, 0.0, 1.0 ],
                                    "destination": [ "obj-42", 0 ],
                                    "midpoints": [ 395.5, 464.0, 395.0, 464.0, 395.0, 522.0, 279.5, 522.0 ],
                                    "source": [ "obj-19", 0 ]
                                }
                            },
                            {
                                "patchline": {
                                    "color": [ 0.0, 0.0, 0.0, 1.0 ],
                                    "destination": [ "obj-6", 0 ],
                                    "midpoints": [ 431.0, 475.0, 431.0, 475.0, 431.0, 599.0, 279.5, 599.0 ],
                                    "source": [ "obj-19", 1 ]
                                }
                            },
                            {
                                "patchline": {
                                    "destination": [ "obj-39", 0 ],
                                    "source": [ "obj-2", 0 ]
                                }
                            },
                            {
                                "patchline": {
                                    "destination": [ "obj-19", 0 ],
                                    "source": [ "obj-21", 0 ]
                                }
                            },
                            {
                                "patchline": {
                                    "destination": [ "obj-18", 0 ],
                                    "source": [ "obj-26", 0 ]
                                }
                            },
                            {
                                "patchline": {
                                    "destination": [ "obj-39", 0 ],
                                    "source": [ "obj-32", 0 ]
                                }
                            },
                            {
                                "patchline": {
                                    "destination": [ "obj-1", 0 ],
                                    "source": [ "obj-38", 0 ]
                                }
                            },
                            {
                                "patchline": {
                                    "destination": [ "obj-38", 1 ],
                                    "source": [ "obj-39", 2 ]
                                }
                            },
                            {
                                "patchline": {
                                    "destination": [ "obj-4", 1 ],
                                    "source": [ "obj-39", 3 ]
                                }
                            },
                            {
                                "patchline": {
                                    "color": [ 0.0, 0.0, 0.0, 1.0 ],
                                    "destination": [ "obj-42", 0 ],
                                    "midpoints": [ 374.8333333333333, 251.0, 239.0, 251.0, 239.0, 521.0, 279.5, 521.0 ],
                                    "source": [ "obj-39", 0 ]
                                }
                            },
                            {
                                "patchline": {
                                    "color": [ 0.0, 0.0, 0.0, 1.0 ],
                                    "destination": [ "obj-6", 0 ],
                                    "midpoints": [ 402.16666666666663, 240.0, 224.0, 240.0, 224.0, 598.0, 279.5, 598.0 ],
                                    "source": [ "obj-39", 1 ]
                                }
                            },
                            {
                                "patchline": {
                                    "destination": [ "obj-40", 0 ],
                                    "source": [ "obj-4", 0 ]
                                }
                            },
                            {
                                "patchline": {
                                    "destination": [ "obj-42", 0 ],
                                    "source": [ "obj-40", 0 ]
                                }
                            },
                            {
                                "patchline": {
                                    "destination": [ "obj-5", 0 ],
                                    "source": [ "obj-42", 0 ]
                                }
                            },
                            {
                                "patchline": {
                                    "destination": [ "obj-6", 0 ],
                                    "source": [ "obj-5", 0 ]
                                }
                            },
                            {
                                "patchline": {
                                    "destination": [ "obj-57", 0 ],
                                    "source": [ "obj-56", 0 ]
                                }
                            },
                            {
                                "patchline": {
                                    "destination": [ "obj-2", 0 ],
                                    "source": [ "obj-57", 0 ]
                                }
                            },
                            {
                                "patchline": {
                                    "destination": [ "obj-32", 0 ],
                                    "source": [ "obj-57", 1 ]
                                }
                            }
                        ],
                        "bgcolor": [ 0.074509803921569, 0.07843137254902, 0.074509803921569, 1.0 ]
                    },
                    "patching_rect": [ 21.0, 366.0, 136.0, 98.0 ],
                    "presentation": 1,
                    "presentation_rect": [ 45.0, 45.0, 659.0, 507.0 ],
                    "viewvisibility": 1
                }
            },
            {
                "box": {
                    "id": "obj-17",
                    "linecount": 2,
                    "maxclass": "comment",
                    "numinlets": 1,
                    "numoutlets": 0,
                    "patching_rect": [ 77.0, 183.0, 53.0, 33.0 ],
                    "text": "pump\n0.0 - 1.0"
                }
            },
            {
                "box": {
                    "id": "obj-15",
                    "linecount": 2,
                    "maxclass": "comment",
                    "numinlets": 1,
                    "numoutlets": 0,
                    "patching_rect": [ 212.0, 183.0, 53.0, 33.0 ],
                    "text": "speed \n0.0 - 1.0"
                }
            },
            {
                "box": {
                    "id": "obj-14",
                    "linecount": 4,
                    "maxclass": "comment",
                    "numinlets": 1,
                    "numoutlets": 0,
                    "patching_rect": [ 345.0, 183.0, 79.0, 60.0 ],
                    "text": "blades \n0.0 = down\n0.5 = forward\n1.0 = up"
                }
            },
            {
                "box": {
                    "format": 6,
                    "id": "obj-8",
                    "maxclass": "flonum",
                    "maximum": 1.0,
                    "minimum": 0.0,
                    "numinlets": 1,
                    "numoutlets": 2,
                    "outlettype": [ "", "bang" ],
                    "parameter_enable": 0,
                    "patching_rect": [ 281.0, 182.0, 50.0, 22.0 ]
                }
            },
            {
                "box": {
                    "id": "obj-9",
                    "maxclass": "message",
                    "numinlets": 2,
                    "numoutlets": 1,
                    "outlettype": [ "" ],
                    "patching_rect": [ 281.0, 220.0, 48.0, 22.0 ],
                    "text": "blue $1"
                }
            },
            {
                "box": {
                    "format": 6,
                    "id": "obj-6",
                    "maxclass": "flonum",
                    "maximum": 1.0,
                    "minimum": 0.0,
                    "numinlets": 1,
                    "numoutlets": 2,
                    "outlettype": [ "", "bang" ],
                    "parameter_enable": 0,
                    "patching_rect": [ 148.0, 182.0, 50.0, 22.0 ]
                }
            },
            {
                "box": {
                    "id": "obj-7",
                    "maxclass": "message",
                    "numinlets": 2,
                    "numoutlets": 1,
                    "outlettype": [ "" ],
                    "patching_rect": [ 148.0, 220.0, 56.0, 22.0 ],
                    "text": "green $1"
                }
            },
            {
                "box": {
                    "format": 6,
                    "id": "obj-5",
                    "maxclass": "flonum",
                    "maximum": 1.0,
                    "minimum": 0.0,
                    "numinlets": 1,
                    "numoutlets": 2,
                    "outlettype": [ "", "bang" ],
                    "parameter_enable": 0,
                    "patching_rect": [ 21.0, 182.0, 50.0, 22.0 ]
                }
            },
            {
                "box": {
                    "id": "obj-3",
                    "maxclass": "message",
                    "numinlets": 2,
                    "numoutlets": 1,
                    "outlettype": [ "" ],
                    "patching_rect": [ 21.0, 220.0, 43.0, 22.0 ],
                    "text": "red $1"
                }
            },
            {
                "box": {
                    "id": "obj-1",
                    "maxclass": "newobj",
                    "numinlets": 1,
                    "numoutlets": 1,
                    "outlettype": [ "beam_signal" ],
                    "patching_rect": [ 21.0, 290.0, 88.0, 22.0 ],
                    "saved_object_attributes": {
                        "tag": "haze"
                    },
                    "text": "beam.tag haze"
                }
            },
            {
                "box": {
                    "id": "obj-24",
                    "maxclass": "newobj",
                    "numinlets": 1,
                    "numoutlets": 0,
                    "patching_rect": [ 21.0, 325.0, 75.0, 22.0 ],
                    "text": "beam.output"
                }
            },
            {
                "box": {
                    "id": "obj-11",
                    "maxclass": "newobj",
                    "numinlets": 0,
                    "numoutlets": 0,
                    "patcher": {
                        "fileversion": 1,
                        "appversion": {
                            "major": 9,
                            "minor": 1,
                            "revision": 0,
                            "architecture": "x64",
                            "modernui": 1
                        },
                        "classnamespace": "box",
                        "rect": [ 431.0, 100.0, 1047.0, 848.0 ],
                        "boxes": [
                            {
                                "box": {
                                    "bgmode": 0,
                                    "border": 0,
                                    "clickthrough": 0,
                                    "enablehscroll": 0,
                                    "enablevscroll": 0,
                                    "id": "obj-2",
                                    "lockeddragscroll": 0,
                                    "lockedsize": 0,
                                    "maxclass": "bpatcher",
                                    "name": "beam.patcheditor.maxpat",
                                    "numinlets": 1,
                                    "numoutlets": 1,
                                    "offset": [ 0.0, 0.0 ],
                                    "outlettype": [ "" ],
                                    "patching_rect": [ 16.0, 15.0, 776.0, 467.0 ],
                                    "viewvisibility": 1
                                }
                            },
                            {
                                "box": {
                                    "bgmode": 0,
                                    "border": 0,
                                    "clickthrough": 0,
                                    "enablehscroll": 0,
                                    "enablevscroll": 0,
                                    "id": "obj-1",
                                    "lockeddragscroll": 0,
                                    "lockedsize": 0,
                                    "maxclass": "bpatcher",
                                    "name": "beam.ioeditor.maxpat",
                                    "numinlets": 1,
                                    "numoutlets": 1,
                                    "offset": [ 0.0, 0.0 ],
                                    "outlettype": [ "" ],
                                    "patching_rect": [ 16.0, 503.0, 776.0, 467.0 ],
                                    "viewvisibility": 1
                                }
                            }
                        ],
                        "lines": []
                    },
                    "patching_rect": [ 460.5, 24.0, 48.0, 22.0 ],
                    "text": "p setup"
                }
            }
        ],
        "lines": [
            {
                "patchline": {
                    "destination": [ "obj-24", 0 ],
                    "source": [ "obj-1", 0 ]
                }
            },
            {
                "patchline": {
                    "destination": [ "obj-12", 0 ],
                    "source": [ "obj-10", 0 ]
                }
            },
            {
                "patchline": {
                    "destination": [ "obj-4", 0 ],
                    "source": [ "obj-12", 0 ]
                }
            },
            {
                "patchline": {
                    "destination": [ "obj-8", 0 ],
                    "source": [ "obj-13", 0 ]
                }
            },
            {
                "patchline": {
                    "destination": [ "obj-29", 0 ],
                    "source": [ "obj-16", 0 ]
                }
            },
            {
                "patchline": {
                    "destination": [ "obj-26", 0 ],
                    "source": [ "obj-2", 1 ]
                }
            },
            {
                "patchline": {
                    "destination": [ "obj-26", 0 ],
                    "source": [ "obj-2", 0 ]
                }
            },
            {
                "patchline": {
                    "destination": [ "obj-19", 0 ],
                    "source": [ "obj-20", 0 ]
                }
            },
            {
                "patchline": {
                    "destination": [ "obj-5", 0 ],
                    "source": [ "obj-22", 0 ]
                }
            },
            {
                "patchline": {
                    "destination": [ "obj-6", 0 ],
                    "source": [ "obj-23", 0 ]
                }
            },
            {
                "patchline": {
                    "destination": [ "obj-19", 0 ],
                    "source": [ "obj-25", 0 ]
                }
            },
            {
                "patchline": {
                    "destination": [ "obj-20", 0 ],
                    "source": [ "obj-26", 0 ]
                }
            },
            {
                "patchline": {
                    "destination": [ "obj-25", 0 ],
                    "source": [ "obj-27", 0 ]
                }
            },
            {
                "patchline": {
                    "destination": [ "obj-32", 0 ],
                    "source": [ "obj-28", 0 ]
                }
            },
            {
                "patchline": {
                    "destination": [ "obj-22", 0 ],
                    "order": 1,
                    "source": [ "obj-29", 1 ]
                }
            },
            {
                "patchline": {
                    "destination": [ "obj-23", 0 ],
                    "order": 0,
                    "source": [ "obj-29", 1 ]
                }
            },
            {
                "patchline": {
                    "destination": [ "obj-30", 0 ],
                    "source": [ "obj-29", 0 ]
                }
            },
            {
                "patchline": {
                    "destination": [ "obj-1", 0 ],
                    "midpoints": [ 30.5, 245.0, 30.5, 245.0 ],
                    "source": [ "obj-3", 0 ]
                }
            },
            {
                "patchline": {
                    "destination": [ "obj-5", 0 ],
                    "order": 1,
                    "source": [ "obj-30", 0 ]
                }
            },
            {
                "patchline": {
                    "destination": [ "obj-6", 0 ],
                    "order": 0,
                    "source": [ "obj-30", 0 ]
                }
            },
            {
                "patchline": {
                    "destination": [ "obj-2", 0 ],
                    "source": [ "obj-31", 0 ]
                }
            },
            {
                "patchline": {
                    "destination": [ "obj-31", 0 ],
                    "source": [ "obj-32", 0 ]
                }
            },
            {
                "patchline": {
                    "destination": [ "obj-34", 0 ],
                    "source": [ "obj-33", 0 ]
                }
            },
            {
                "patchline": {
                    "destination": [ "obj-28", 0 ],
                    "order": 1,
                    "source": [ "obj-34", 0 ]
                }
            },
            {
                "patchline": {
                    "destination": [ "obj-40", 0 ],
                    "order": 0,
                    "source": [ "obj-34", 0 ]
                }
            },
            {
                "patchline": {
                    "destination": [ "obj-27", 0 ],
                    "source": [ "obj-4", 1 ]
                }
            },
            {
                "patchline": {
                    "destination": [ "obj-27", 0 ],
                    "source": [ "obj-4", 0 ]
                }
            },
            {
                "patchline": {
                    "destination": [ "obj-10", 0 ],
                    "source": [ "obj-40", 0 ]
                }
            },
            {
                "patchline": {
                    "destination": [ "obj-3", 0 ],
                    "source": [ "obj-5", 0 ]
                }
            },
            {
                "patchline": {
                    "destination": [ "obj-7", 0 ],
                    "source": [ "obj-6", 0 ]
                }
            },
            {
                "patchline": {
                    "destination": [ "obj-1", 0 ],
                    "midpoints": [ 157.5, 275.0, 30.5, 275.0 ],
                    "source": [ "obj-7", 0 ]
                }
            },
            {
                "patchline": {
                    "destination": [ "obj-9", 0 ],
                    "source": [ "obj-8", 0 ]
                }
            },
            {
                "patchline": {
                    "destination": [ "obj-1", 0 ],
                    "midpoints": [ 290.5, 275.0, 30.5, 275.0 ],
                    "source": [ "obj-9", 0 ]
                }
            }
        ]
    }
}